<mxfile host="app.diagrams.net" modified="2021-04-12T11:46:55.071Z" agent="5.0 (Macintosh; Intel Mac OS X 11_2_3) AppleWebKit/537.36 (KHTML, like Gecko) Chrome/89.0.4389.90 Safari/537.36" etag="KDcwAHA7MiBSaaBWyghA" version="14.5.6" type="github">
  <diagram id="MoAVtRw8xxOuQ7ytT4xm" name="Page-1">
    <mxGraphModel dx="1166" dy="824" grid="1" gridSize="10" guides="1" tooltips="1" connect="1" arrows="1" fold="1" page="1" pageScale="1" pageWidth="850" pageHeight="1100" math="0" shadow="0">
      <root>
        <mxCell id="0" />
        <mxCell id="1" parent="0" />
        <mxCell id="7DfuF_MUj5GNYcEewrte-3" value="" style="rounded=0;whiteSpace=wrap;html=1;fillColor=none;" vertex="1" parent="1">
          <mxGeometry x="140" y="160" width="580" height="450" as="geometry" />
        </mxCell>
        <mxCell id="7DfuF_MUj5GNYcEewrte-4" value="OCI Region&amp;nbsp; - Ashburn" style="text;html=1;strokeColor=none;fillColor=none;align=center;verticalAlign=middle;whiteSpace=wrap;rounded=0;" vertex="1" parent="1">
          <mxGeometry x="140" y="590" width="130" height="20" as="geometry" />
        </mxCell>
        <mxCell id="7DfuF_MUj5GNYcEewrte-5" value="Static JS and CSS Files" style="shape=image;verticalLabelPosition=bottom;verticalAlign=top;imageAspect=0;aspect=fixed;image=data:image/svg+xml,PHN2ZyB2ZXJzaW9uPSIxLjEiIGlkPSJCdWNrZXRzIiB4bWxucz0iaHR0cDovL3d3dy53My5vcmcvMjAwMC9zdmciIHhtbG5zOnhsaW5rPSJodHRwOi8vd3d3LnczLm9yZy8xOTk5L3hsaW5rIiB4PSIwcHgiIHk9IjBweCIgdmlld0JveD0iMCAwIDE2MS45IDE2MiIgZW5hYmxlLWJhY2tncm91bmQ9Im5ldyAwIDAgMTYxLjkgMTYyIiB4bWw6c3BhY2U9InByZXNlcnZlIj4mI3hhOzxwYXRoIGZpbGw9IiMzMTJEMkEiIGQ9Ik0xNTIuOCwxNTIuN0g5LjFWMjdoMTQzLjhWMTUyLjd6IE0xOC4xLDE0My43aDEyNS44VjM2SDE4LjFWMTQzLjd6IE0xNTIuOSw5LjRIOS4ydjloMTQzLjhWOS40eiBNOTgsMTAxLjQgIGwtMTEuOSwwbC01LjktMTAuM2w2LTEwLjNsMTEuOSwwbDUuOSwxMC4zTDk4LDEwMS40eiBNODguNCw5Ny40bDcuMywwbDMuNi02LjNsLTMuNi02LjNsLTcuMywwbC0zLjYsNi4zTDg4LjQsOTcuNHogTTgwLjcsMTI0LjkgIGMtNS42LDAtMTAuMi00LjYtMTAuMi0xMC4yYzAtNS42LDQuNi0xMC4yLDEwLjItMTAuMmM1LjYsMCwxMC4yLDQuNiwxMC4yLDEwLjJDOTEsMTIwLjMsODYuNCwxMjQuOSw4MC43LDEyNC45eiBNODAuNywxMDguNCAgYy0zLjQsMC02LjIsMi44LTYuMiw2LjJzMi44LDYuMiw2LjIsNi4yczYuMi0yLjgsNi4yLTYuMlM4NC4yLDEwOC40LDgwLjcsMTA4LjR6IE04MC45LDEwMS40SDU3LjdsMTEuNi0yMS4xTDgwLjksMTAxLjR6ICAgTTY0LjQsOTcuNGg5LjdsLTQuOS04LjhMNjQuNCw5Ny40eiBNMTE4LjcsNjkuNFY0OS41aC0yMHYtNS4xSDYzLjR2NS4xSDQzLjF2MTkuOWgtNC4zbDEwLjcsNjYuN2g2Mi45bDEwLTY2LjdIMTE4Ljd6IE02OC40LDQ5LjQgIGgyNS4zdjUuNUg2OC40VjQ5LjR6IE00OS4xLDU1LjVoMTQuM3Y0LjRoMzUuM3YtNC40aDE0djEzLjlINDkuMVY1NS41eiBNMTA1LjYsMTI4LjFINTYuNGwtOC4xLTUwLjdoNjVMMTA1LjYsMTI4LjF6Ii8+JiN4YTs8L3N2Zz4=;fillColor=none;" vertex="1" parent="1">
          <mxGeometry x="200" y="230" width="50" height="50" as="geometry" />
        </mxCell>
        <mxCell id="7DfuF_MUj5GNYcEewrte-6" value="" style="rounded=0;whiteSpace=wrap;html=1;fillColor=none;dashed=1;dashPattern=1 1;" vertex="1" parent="1">
          <mxGeometry x="320" y="200" width="360" height="370" as="geometry" />
        </mxCell>
        <mxCell id="7DfuF_MUj5GNYcEewrte-7" value="VCN" style="text;html=1;strokeColor=none;fillColor=none;align=center;verticalAlign=middle;whiteSpace=wrap;rounded=0;" vertex="1" parent="1">
          <mxGeometry x="320" y="550" width="60" height="20" as="geometry" />
        </mxCell>
        <mxCell id="7DfuF_MUj5GNYcEewrte-8" value="" style="shape=image;verticalLabelPosition=bottom;verticalAlign=top;imageAspect=0;aspect=fixed;image=data:image/svg+xml,PHN2ZyB2ZXJzaW9uPSIxLjEiIGlkPSJEUkciIHhtbG5zPSJodHRwOi8vd3d3LnczLm9yZy8yMDAwL3N2ZyIgeG1sbnM6eGxpbms9Imh0dHA6Ly93d3cudzMub3JnLzE5OTkveGxpbmsiIHg9IjBweCIgeT0iMHB4IiB2aWV3Qm94PSIwIDAgMTYxLjkgMTYyIiBlbmFibGUtYmFja2dyb3VuZD0ibmV3IDAgMCAxNjEuOSAxNjIiIHhtbDpzcGFjZT0icHJlc2VydmUiPiYjeGE7PHBhdGggZmlsbD0iIzMxMkQyQSIgZD0iTTE1My41LDY4LjJjMC0xMC41LTguNS0xOS0xOS0xOWMtMy45LDAtNy41LDEuMi0xMC41LDMuMkw5OC43LDMzLjljMC4zLTEuNCwwLjUtMi44LDAuNS00LjMgIGMwLTEwLjUtOC41LTE5LTE5LTE5cy0xOSw4LjUtMTksMTljMCwxLjcsMC4yLDMuMywwLjcsNC45TDM3LjcsNTIuMWMtMi45LTEuOC02LjQtMi45LTEwLTIuOWMtMTAuNSwwLTE5LDguNS0xOSwxOSAgYzAsMTAsNy43LDE4LjEsMTcuNSwxOC45bDkuMiwyOC4yYy00LjgsMy41LTgsOS4xLTgsMTUuNGMwLDEwLjUsOC41LDE5LDE5LDE5YzcuOSwwLDE0LjgtNC45LDE3LjYtMTEuOWgzNC4zICBjMi44LDYuOSw5LjYsMTEuOSwxNy42LDExLjljMTAuNSwwLDE5LTguNSwxOS0xOWMwLTYuNy0zLjUtMTIuNS04LjctMTUuOWw5LTI3LjdDMTQ1LjMsODYuOCwxNTMuNSw3OC40LDE1My41LDY4LjJ6IE0xMzQuNSw1OS4yICBjNSwwLDksNCw5LDlzLTQsOS05LDlzLTktNC05LTlTMTI5LjYsNTkuMiwxMzQuNSw1OS4yeiBNMTE4LjQsNTguMmMtMS44LDIuOS0yLjksNi4zLTIuOSwxMGMwLDAuNiwwLDEuMiwwLjEsMS44TDk2LjcsNzYgIGMtMi42LTQuNS02LjktNy44LTEyLTkuMVY0OC4xYzQuMi0xLDcuOS0zLjUsMTAuNS02LjhMMTE4LjQsNTguMnogTTYwLjgsMTE4LjRsMTEuOS0xNS42YzIuMywxLDQuOCwxLjUsNy41LDEuNSAgYzMuMiwwLDYuMi0wLjgsOC44LTIuMmwxMi40LDE2LjJjLTIuNywzLjEtNC4zLDcuMS00LjUsMTEuNUg2NS4zQzY1LjEsMTI1LjUsNjMuNCwxMjEuNSw2MC44LDExOC40eiBNODAuMiw3Ni40YzUsMCw5LDQsOSw5ICBzLTQsOS05LDljLTUsMC05LTQtOS05Uzc1LjIsNzYuNCw4MC4yLDc2LjR6IE04MC4yLDIwLjZjNSwwLDksNCw5LDlzLTQsOS05LDljLTUsMC05LTQtOS05Uzc1LjIsMjAuNiw4MC4yLDIwLjZ6IE03Ni43LDQ4LjN2MTguNCAgYy01LjMsMS05LjksNC4yLTEyLjYsOC43bC0xNy40LTYuMWMwLTAuNCwwLjEtMC44LDAuMS0xLjJjMC0zLjktMS4yLTcuNC0zLjEtMTAuNGwyMi0xNkM2OC4zLDQ1LjEsNzIuMiw0Ny41LDc2LjcsNDguM3ogTTE4LjcsNjguMiAgYzAtNSw0LTksOS05czksNCw5LDlzLTQsOS05LDlTMTguNyw3My4xLDE4LjcsNjguMnogTTM0LjIsODZjNC40LTEuNiw4LjEtNC44LDEwLjMtOC45TDYxLjMsODNjLTAuMSwwLjgtMC4yLDEuNi0wLjIsMi40ICBjMCw0LjksMS45LDkuNCw1LDEyLjhsLTExLjgsMTUuNGMtMi41LTEuMi01LjItMS44LTguMS0xLjhjLTEuMywwLTIuNSwwLjEtMy43LDAuNEwzNC4yLDg2eiBNNDYuMywxMzkuOGMtNSwwLTktNC05LTlzNC05LDktOSAgczksNCw5LDlTNTEuMywxMzkuOCw0Ni4zLDEzOS44eiBNMTE1LjgsMTM5LjhjLTUsMC05LTQtOS05czQtOSw5LTlzOSw0LDksOVMxMjAuOCwxMzkuOCwxMTUuOCwxMzkuOHogTTExNS44LDExMS43ICBjLTIuOSwwLTUuNiwwLjctOC4xLDEuOEw5NS4xLDk3LjFjMi41LTMuMiw0LTcuMyw0LTExLjdjMC0wLjYsMC0xLjItMC4xLTEuN2wxOC45LTYuMWMyLjEsMy42LDUuMyw2LjUsOS4yLDguMmwtOC41LDI2LjMgIEMxMTcuOCwxMTEuOCwxMTYuOCwxMTEuNywxMTUuOCwxMTEuN3oiLz4mI3hhOzwvc3ZnPg==;dashed=1;dashPattern=1 1;fillColor=none;imageBackground=#ffffff;" vertex="1" parent="1">
          <mxGeometry x="650" y="543" width="47" height="47" as="geometry" />
        </mxCell>
        <mxCell id="7DfuF_MUj5GNYcEewrte-10" style="edgeStyle=orthogonalEdgeStyle;rounded=0;orthogonalLoop=1;jettySize=auto;html=1;exitX=1;exitY=1;exitDx=0;exitDy=0;" edge="1" parent="1" source="7DfuF_MUj5GNYcEewrte-9" target="7DfuF_MUj5GNYcEewrte-5">
          <mxGeometry relative="1" as="geometry" />
        </mxCell>
        <mxCell id="7DfuF_MUj5GNYcEewrte-19" style="edgeStyle=orthogonalEdgeStyle;rounded=0;orthogonalLoop=1;jettySize=auto;html=1;" edge="1" parent="1" source="7DfuF_MUj5GNYcEewrte-9" target="7DfuF_MUj5GNYcEewrte-17">
          <mxGeometry relative="1" as="geometry" />
        </mxCell>
        <mxCell id="7DfuF_MUj5GNYcEewrte-9" value="Users" style="shape=image;verticalLabelPosition=bottom;verticalAlign=top;imageAspect=0;aspect=fixed;image=data:image/svg+xml,PHN2ZyB2ZXJzaW9uPSIxLjEiIGlkPSJHcm91cHMiIHhtbG5zPSJodHRwOi8vd3d3LnczLm9yZy8yMDAwL3N2ZyIgeG1sbnM6eGxpbms9Imh0dHA6Ly93d3cudzMub3JnLzE5OTkveGxpbmsiIHg9IjBweCIgeT0iMHB4IiB2aWV3Qm94PSIwIDAgMTYxLjkgMTYyIiBlbmFibGUtYmFja2dyb3VuZD0ibmV3IDAgMCAxNjEuOSAxNjIiIHhtbDpzcGFjZT0icHJlc2VydmUiPiYjeGE7PHBhdGggZmlsbD0iIzMxMkQyQSIgZD0iTTEyOC4xLDg2LjVjLTguOCwwLTE1LjktNy4xLTE1LjktMTUuOXM3LjEtMTUuOSwxNS45LTE1LjljOC44LDAsMTUuOSw3LjEsMTUuOSwxNS45UzEzNi44LDg2LjUsMTI4LjEsODYuNXogICBNMTI4LjEsNjIuN2MtNC4zLDAtNy45LDMuNS03LjksNy45czMuNSw3LjksNy45LDcuOWM0LjMsMCw3LjktMy41LDcuOS03LjlTMTMyLjQsNjIuNywxMjguMSw2Mi43eiBNMzMuNyw4Ni45ICBjLTguOCwwLTE1LjktNy4xLTE1LjktMTUuOVMyNSw1NS4yLDMzLjcsNTUuMnMxNS45LDcuMSwxNS45LDE1LjlTNDIuNSw4Ni45LDMzLjcsODYuOXogTTMzLjcsNjMuMmMtNC4zLDAtNy45LDMuNS03LjksNy45ICBzMy41LDcuOSw3LjksNy45czcuOS0zLjUsNy45LTcuOVMzOC4xLDYzLjIsMzMuNyw2My4yeiBNMTAzLjQsMTI0LjhoOHYwTDEwMy40LDEyNC44TDEwMy40LDEyNC44eiBNMTMwLjIsOTAuNWgtNC4yICBjLTUuNSwwLTEwLjYsMi0xNC41LDUuM2MxLjcsMi4xLDMuMSw0LjQsNC4zLDYuOWMyLjYtMi42LDYuMi00LjIsMTAuMi00LjJoNC4yYzgsMCwxNC41LDYuNSwxNC41LDE0LjV2MTEuOGg4VjExMyAgQzE1Mi43LDEwMC42LDE0Mi42LDkwLjUsMTMwLjIsOTAuNXogTTM1LjgsOTAuNWgtNC4yYy0xMi40LDAtMjIuNSwxMC4xLTIyLjUsMjIuNXYxMS44aDhWMTEzYzAtOCw2LjUtMTQuNSwxNC41LTE0LjVoNC4yICBjNC4xLDAsNy44LDEuNywxMC41LDQuNWMxLjEtMi41LDIuNi00LjgsNC4zLTdDNDYuNiw5Mi42LDQxLjUsOTAuNSwzNS44LDkwLjV6IE01MC40LDEyNC44aDh2MEw1MC40LDEyNC44TDUwLjQsMTI0Ljh6IE04MS4xLDgzLjYgIGMtMTEuNywwLTIxLjEtOS41LTIxLjEtMjEuMXM5LjUtMjEuMSwyMS4xLTIxLjFjMTEuNywwLDIxLjEsOS41LDIxLjEsMjEuMVM5Mi43LDgzLjYsODEuMSw4My42eiBNODEuMSw1MC4zICBjLTYuNywwLTEyLjEsNS40LTEyLjEsMTIuMXM1LjQsMTIuMSwxMi4xLDEyLjFzMTIuMS01LjQsMTIuMS0xMi4xUzg3LjgsNTAuMyw4MS4xLDUwLjN6IE0xMTQuNSwxMTguOWMwLTE2LjgtMTMuNy0zMC41LTMwLjUtMzAuNSAgaC02Yy0xNi44LDAtMzAuNSwxMy43LTMwLjUsMzAuNXY2aDl2LTZjMC0xMS44LDkuNi0yMS41LDIxLjUtMjEuNWg2YzExLjgsMCwyMS41LDkuNiwyMS41LDIxLjV2Nmg5VjExOC45eiIvPiYjeGE7PC9zdmc+;dashed=1;dashPattern=1 1;fillColor=none;" vertex="1" parent="1">
          <mxGeometry x="188" y="20" width="62" height="62" as="geometry" />
        </mxCell>
        <mxCell id="7DfuF_MUj5GNYcEewrte-11" value="" style="rounded=0;whiteSpace=wrap;html=1;dashed=1;fillColor=none;" vertex="1" parent="1">
          <mxGeometry x="360" y="230" width="290" height="120" as="geometry" />
        </mxCell>
        <mxCell id="7DfuF_MUj5GNYcEewrte-12" value="" style="rounded=0;whiteSpace=wrap;html=1;dashed=1;fillColor=none;" vertex="1" parent="1">
          <mxGeometry x="360" y="390" width="290" height="120" as="geometry" />
        </mxCell>
        <mxCell id="7DfuF_MUj5GNYcEewrte-13" value="Public Subnet" style="text;html=1;strokeColor=none;fillColor=none;align=center;verticalAlign=middle;whiteSpace=wrap;rounded=0;dashed=1;dashPattern=1 1;" vertex="1" parent="1">
          <mxGeometry x="360" y="330" width="90" height="20" as="geometry" />
        </mxCell>
        <mxCell id="7DfuF_MUj5GNYcEewrte-14" value="Private Subnet" style="text;html=1;strokeColor=none;fillColor=none;align=center;verticalAlign=middle;whiteSpace=wrap;rounded=0;dashed=1;dashPattern=1 1;" vertex="1" parent="1">
          <mxGeometry x="360" y="490" width="90" height="20" as="geometry" />
        </mxCell>
        <mxCell id="7DfuF_MUj5GNYcEewrte-26" style="edgeStyle=orthogonalEdgeStyle;rounded=0;orthogonalLoop=1;jettySize=auto;html=1;" edge="1" parent="1" source="7DfuF_MUj5GNYcEewrte-15" target="7DfuF_MUj5GNYcEewrte-16">
          <mxGeometry relative="1" as="geometry">
            <Array as="points">
              <mxPoint x="560" y="273" />
              <mxPoint x="560" y="441" />
            </Array>
          </mxGeometry>
        </mxCell>
        <mxCell id="7DfuF_MUj5GNYcEewrte-15" value="API Gateway" style="shape=image;verticalLabelPosition=bottom;verticalAlign=top;imageAspect=0;aspect=fixed;image=data:image/svg+xml,PHN2ZyB2ZXJzaW9uPSIxLjEiIGlkPSJBUElfR2F0ZXdheSIgeG1sbnM9Imh0dHA6Ly93d3cudzMub3JnLzIwMDAvc3ZnIiB4bWxuczp4bGluaz0iaHR0cDovL3d3dy53My5vcmcvMTk5OS94bGluayIgeD0iMHB4IiB5PSIwcHgiIHZpZXdCb3g9IjAgMCAxNjEuOSAxNjIiIGVuYWJsZS1iYWNrZ3JvdW5kPSJuZXcgMCAwIDE2MS45IDE2MiIgeG1sOnNwYWNlPSJwcmVzZXJ2ZSI+JiN4YTs8cGF0aCBmaWxsPSIjMzEyRDJBIiBkPSJNODUuOSwzOC4xbDE5LjksODcuNGgtMTRMODEuNiw2My43Yy0wLjEtMC41LTAuOC0wLjUtMC45LDBsLTEwLjgsNjEuOEg1NmwxOS45LTg3LjRIODUuOSBNOTMuNiwyOS4xaC03LjcgIGgtMTBoLTcuN0w0NS40LDEzNC40SDU2aDE0SDc4bDIuOS00OS43bDIuOCw0OS43aDguMWgxNGgxMC41TDkzLjYsMjkuMUw5My42LDI5LjF6Ii8+JiN4YTs8cG9seWdvbiBmaWxsPSJub25lIiBzdHJva2U9IiMzMTJEMkEiIHN0cm9rZS13aWR0aD0iOSIgc3Ryb2tlLW1pdGVybGltaXQ9IjEwIiBwb2ludHM9IjEzLjUsNjAuMSAxMy41LDk3LjEgMzYuOSwxMTguMiAzNy4xLDM5LjQgICAiLz4mI3hhOzxwb2x5Z29uIGZpbGw9Im5vbmUiIHN0cm9rZT0iIzMxMkQyQSIgc3Ryb2tlLXdpZHRoPSI5IiBzdHJva2UtbWl0ZXJsaW1pdD0iMTAiIHBvaW50cz0iMTQ4LjIsNjAuMSAxNDguMiw5Ny4xIDEyNC44LDExOC4yICAgMTI0LjYsMzkuNCAiLz4mI3hhOzwvc3ZnPg==;dashed=1;dashPattern=1 1;fillColor=none;" vertex="1" parent="1">
          <mxGeometry x="477" y="250" width="46" height="46" as="geometry" />
        </mxCell>
        <mxCell id="7DfuF_MUj5GNYcEewrte-35" style="edgeStyle=orthogonalEdgeStyle;rounded=0;orthogonalLoop=1;jettySize=auto;html=1;" edge="1" parent="1" source="7DfuF_MUj5GNYcEewrte-16" target="7DfuF_MUj5GNYcEewrte-18">
          <mxGeometry relative="1" as="geometry" />
        </mxCell>
        <mxCell id="7DfuF_MUj5GNYcEewrte-16" value="Python Fn" style="shape=image;verticalLabelPosition=bottom;verticalAlign=top;imageAspect=0;aspect=fixed;image=data:image/svg+xml,PHN2ZyB2ZXJzaW9uPSIxLjEiIGlkPSJGdW5jdGlvbnMiIHhtbG5zPSJodHRwOi8vd3d3LnczLm9yZy8yMDAwL3N2ZyIgeG1sbnM6eGxpbms9Imh0dHA6Ly93d3cudzMub3JnLzE5OTkveGxpbmsiIHg9IjBweCIgeT0iMHB4IiB2aWV3Qm94PSIwIDAgMTYxLjkgMTYyIiBlbmFibGUtYmFja2dyb3VuZD0ibmV3IDAgMCAxNjEuOSAxNjIiIHhtbDpzcGFjZT0icHJlc2VydmUiPiYjeGE7PHBhdGggZmlsbD0iIzMxMkQyQSIgZD0iTTEyOS42LDEyOC4xaC0xOS4ydi0xOS4yaDE5LjJWMTI4LjF6IE05NC4xLDEwOC45SDc0Ljl2MTkuMmgxOS4yVjEwOC45eiBNNjMuMiwxMDQuNEgyNy42djI4LjJoMzUuNlYxMDQuNHogICBNMzYuNiwxMTMuNGgxNy42djEwLjJIMzYuNlYxMTMuNHogTTEyOS42LDcxLjNoLTE5LjJ2MTkuMmgxOS4yVjcxLjN6IE05Ny43LDY2LjhIMjcuNlY5NWg3MC4xVjY2Ljh6IE0zNi42LDc1LjhoNTIuMVY4NkgzNi42Vjc1LjggIHogTTEzNC4xLDI5LjNIMjcuNnYyOC4yaDEwNi41VjI5LjN6IE0zNi42LDM4LjNoODguNXYxMC4ySDM2LjZWMzguM3ogTTE1Mi44LDkuMkg5djE0My42aDE0My44VjkuMnogTTE4LDE4LjJoMTI1Ljh2MTI1LjZIMThWMTguMnogICIvPiYjeGE7PC9zdmc+;dashed=1;dashPattern=1 1;fillColor=none;" vertex="1" parent="1">
          <mxGeometry x="479" y="420" width="42" height="42" as="geometry" />
        </mxCell>
        <mxCell id="7DfuF_MUj5GNYcEewrte-25" style="edgeStyle=orthogonalEdgeStyle;rounded=0;orthogonalLoop=1;jettySize=auto;html=1;" edge="1" parent="1" source="7DfuF_MUj5GNYcEewrte-17" target="7DfuF_MUj5GNYcEewrte-15">
          <mxGeometry relative="1" as="geometry" />
        </mxCell>
        <mxCell id="7DfuF_MUj5GNYcEewrte-17" value="" style="shape=image;verticalLabelPosition=bottom;verticalAlign=top;imageAspect=0;aspect=fixed;image=data:image/svg+xml,PHN2ZyB2ZXJzaW9uPSIxLjEiIGlkPSJJbnRlcm5ldF9HYXRld2F5IiB4bWxucz0iaHR0cDovL3d3dy53My5vcmcvMjAwMC9zdmciIHhtbG5zOnhsaW5rPSJodHRwOi8vd3d3LnczLm9yZy8xOTk5L3hsaW5rIiB4PSIwcHgiIHk9IjBweCIgdmlld0JveD0iMCAwIDE2MS45IDE2MiIgZW5hYmxlLWJhY2tncm91bmQ9Im5ldyAwIDAgMTYxLjkgMTYyIiB4bWw6c3BhY2U9InByZXNlcnZlIj4mI3hhOzxnPiYjeGE7CTxyZWN0IHg9Ijc3LjQiIHk9IjcxLjkiIGZpbGw9IiMzMTJEMkEiIHdpZHRoPSI2LjMiIGhlaWdodD0iMi44Ii8+JiN4YTsJPHJlY3QgeD0iNzcuNCIgeT0iNjYuMyIgZmlsbD0iIzMxMkQyQSIgd2lkdGg9IjYuMyIgaGVpZ2h0PSIyLjgiLz4mI3hhOwk8cGF0aCBmaWxsPSIjMzEyRDJBIiBkPSJNMTA0LjcsMjkuNGMtMi40LTQuNy03LjktMTAuMi0xNy4zLTguOGMtMy41LTMuNS0xMC4yLTcuNC0xOC44LTQuOWMtMS40LDAuMy03LjgsMi40LTExLjEsMTAuNSAgIEM1MiwyNy41LDQ0LjEsMzIsNDIuMiw0Mi44bDAsMC4yYzAsMC4zLTEsOC4xLDMuOSwxNC4xYzMuMSwzLjgsNy43LDUuOSwxMy42LDYuNGwwLjEsMGw0Mi41LDBjMC4xLDAsMC4yLDAsMC4yLDAgICBjNSwwLDE0LjgtMy4zLDE2LjktMTYuMmwwLTAuNEMxMTkuOSw0MS42LDExNy4xLDMxLjYsMTA0LjcsMjkuNHogTTEwMi40LDU1LjlIODMuNXYtOS40aDkuNEw4MC40LDMwLjRMNjguMyw0Ni42aDguOXY5LjRINjAuMSAgIGMtMy43LTAuMy02LjQtMS41LTguMS0zLjZjLTIuNy0zLjItMi40LTcuOC0yLjMtOC40YzEuOC05LjYsMTAtMTAuNiwxMC45LTEwLjdsMi42LTAuMmwwLjctMi41YzEuOC02LjQsNi4yLTcuNSw2LjMtNy41bDAuMy0wLjEgICBjNy41LTIuMiwxMS44LDMuMywxMi4yLDMuOWwxLjUsMi4ybDIuNS0wLjdjOC41LTIuMiwxMS4xLDQuMywxMS42LDUuNmwwLjgsMi40bDIuNSwwLjJjOS44LDAuOCwxMC4zLDcuOSwxMC4zLDkuNiAgIEMxMTAuMyw1NS43LDEwMy4zLDU1LjksMTAyLjQsNTUuOXoiLz4mI3hhOwk8cG9seWdvbiBmaWxsPSIjMzEyRDJBIiBwb2ludHM9Ijc0LjMsMTAwLjYgNzcuNSwxMDAuNiA3Ny41LDEyMy40IDc0LjIsMTIzLjQgODAuNiwxMzUgODcsMTIzLjQgODMuOCwxMjMuNCA4My44LDEwMC42IDg3LDEwMC42ICAgIDgwLjYsODkuMSAgIi8+JiN4YTsJPHBhdGggZmlsbD0iIzMxMkQyQSIgZD0iTTgwLjUsNzcuMWMtMTksMC0zNC41LDE1LjctMzQuNSwzNXMxNS41LDM1LDM0LjUsMzVjMTksMCwzNC41LTE1LjcsMzQuNS0zNVM5OS41LDc3LjEsODAuNSw3Ny4xeiAgICBNODYuNCwxMTIuMWwxMS42LDYuNHYtMy4yaDkuMmMtMS41LDEzLjctMTMsMjQuNC0yNi44LDI0LjRjLTEzLjksMC0yNS4zLTEwLjctMjYuOC0yNC40aDkuN3YzLjJMNzUsMTEybC0xMS42LTYuNHYzLjJoLTkuNyAgIGMxLjYtMTMuNiwxMy0yNC4zLDI2LjgtMjQuM2MxMy44LDAsMjUuMiwxMC42LDI2LjgsMjQuM0g5OHYtMy4yTDg2LjQsMTEyLjF6Ii8+JiN4YTs8L2c+JiN4YTs8L3N2Zz4=;dashed=1;dashPattern=1 1;fillColor=none;imageBackground=#ffffff;" vertex="1" parent="1">
          <mxGeometry x="480.5" y="180" width="39" height="39" as="geometry" />
        </mxCell>
        <mxCell id="7DfuF_MUj5GNYcEewrte-37" style="edgeStyle=orthogonalEdgeStyle;rounded=0;orthogonalLoop=1;jettySize=auto;html=1;" edge="1" parent="1" source="7DfuF_MUj5GNYcEewrte-18" target="7DfuF_MUj5GNYcEewrte-32">
          <mxGeometry relative="1" as="geometry">
            <Array as="points">
              <mxPoint x="280" y="441" />
              <mxPoint x="280" y="360" />
            </Array>
          </mxGeometry>
        </mxCell>
        <mxCell id="7DfuF_MUj5GNYcEewrte-18" value="" style="shape=image;verticalLabelPosition=bottom;verticalAlign=top;imageAspect=0;aspect=fixed;image=data:image/svg+xml,PHN2ZyB2ZXJzaW9uPSIxLjEiIGlkPSJEUkciIHhtbG5zPSJodHRwOi8vd3d3LnczLm9yZy8yMDAwL3N2ZyIgeG1sbnM6eGxpbms9Imh0dHA6Ly93d3cudzMub3JnLzE5OTkveGxpbmsiIHg9IjBweCIgeT0iMHB4IiB2aWV3Qm94PSIwIDAgMTYxLjkgMTYyIiBlbmFibGUtYmFja2dyb3VuZD0ibmV3IDAgMCAxNjEuOSAxNjIiIHhtbDpzcGFjZT0icHJlc2VydmUiPiYjeGE7PGc+JiN4YTsJPHBhdGggZmlsbD0iIzMxMkQyQSIgZD0iTTgxLDE5LjJjLTM0LjEsMC02MS44LDI3LjctNjEuOCw2MS44czI3LjcsNjEuOCw2MS44LDYxLjhzNjEuOC0yNy43LDYxLjgtNjEuOFMxMTUuMSwxOS4yLDgxLDE5LjJ6ICAgIE04MSwxMzMuOGMtMjcuNywwLTUwLjUtMjEuNS01Mi42LTQ4LjdoMjMuOXY4LjZsMjEtMTEuNmwtMjEtMTEuNXY3LjFoLTI0QzMwLjEsNTAuMSw1MywyOC4yLDgxLDI4LjJjMjguMSwwLDUxLjEsMjIsNTIuNyw0OS43ICAgaC0yMy44di03LjhsLTIxLDExLjZsMjEsMTEuNXYtNy44aDIzLjdDMTMxLjQsMTEyLjQsMTA4LjcsMTMzLjgsODEsMTMzLjh6Ii8+JiN4YTsJPHBvbHlnb24gZmlsbD0iIzMxMkQyQSIgcG9pbnRzPSI4NC4yLDYwLjcgOTIuMSw2MC43IDgwLjUsMzkuOCA2OSw2MC43IDc2LjgsNjAuNyA3Ni44LDEwMiA2OC45LDEwMiA4MC41LDEyMi45IDkyLDEwMiA4NC4yLDEwMiAgICAgIi8+JiN4YTs8L2c+JiN4YTs8L3N2Zz4=;dashed=1;dashPattern=1 1;fillColor=none;imageBackground=#ffffff;" vertex="1" parent="1">
          <mxGeometry x="300" y="421.5" width="39" height="39" as="geometry" />
        </mxCell>
        <mxCell id="7DfuF_MUj5GNYcEewrte-38" style="edgeStyle=orthogonalEdgeStyle;rounded=0;orthogonalLoop=1;jettySize=auto;html=1;" edge="1" parent="1" source="7DfuF_MUj5GNYcEewrte-32" target="7DfuF_MUj5GNYcEewrte-36">
          <mxGeometry relative="1" as="geometry">
            <Array as="points">
              <mxPoint x="170" y="365" />
              <mxPoint x="170" y="464" />
            </Array>
          </mxGeometry>
        </mxCell>
        <mxCell id="7DfuF_MUj5GNYcEewrte-32" value="Dynamic Group" style="shape=image;verticalLabelPosition=bottom;verticalAlign=top;imageAspect=0;aspect=fixed;image=data:image/svg+xml,PHN2ZyB2ZXJzaW9uPSIxLjEiIGlkPSJJRF9BY2Nlc3MiIHhtbG5zPSJodHRwOi8vd3d3LnczLm9yZy8yMDAwL3N2ZyIgeG1sbnM6eGxpbms9Imh0dHA6Ly93d3cudzMub3JnLzE5OTkveGxpbmsiIHg9IjBweCIgeT0iMHB4IiB2aWV3Qm94PSIwIDAgMTYxLjkgMTYyIiBlbmFibGUtYmFja2dyb3VuZD0ibmV3IDAgMCAxNjEuOSAxNjIiIHhtbDpzcGFjZT0icHJlc2VydmUiPiYjeGE7PGc+JiN4YTsJPHBhdGggZmlsbD0iIzMxMkQyQSIgZD0iTTYwLjMsMzguNmMwLTcuNS02LjEtMTMuNy0xMy43LTEzLjdTMzMsMzEuMSwzMywzOC42czYuMSwxMy43LDEzLjcsMTMuN1M2MC4zLDQ2LjEsNjAuMywzOC42eiBNNDAsMzguNiAgIGMwLTMuNywzLTYuNyw2LjctNi43czYuNywzLDYuNyw2LjdzLTMsNi43LTYuNyw2LjdTNDAsNDIuMyw0MCwzOC42eiIvPiYjeGE7CTxwYXRoIGZpbGw9IiMzMTJEMkEiIGQ9Ik02Ny44LDc1Ljh2LTEuNmMwLTEwLjctOC43LTE5LjMtMTkuMy0xOS4zaC0zLjZjLTEwLjcsMC0xOS4zLDguNy0xOS4zLDE5LjN2MS42aDd2LTEuNiAgIGMwLTYuOCw1LjUtMTIuMywxMi4zLTEyLjNoMy42YzYuOCwwLDEyLjMsNS41LDEyLjMsMTIuM3YxLjZINjcuOHoiLz4mI3hhOwk8cG9seWdvbiBmaWxsPSIjMzEyRDJBIiBwb2ludHM9IjE4LjIsODIuNCAxOC4yLDE4LjMgMTE1LjMsMTguMyAxMTUuMyw2My4zIDEyMC41LDYxLjEgMTI0LjMsNjIuNyAxMjQuMyw5LjMgOS4yLDkuMyA5LjIsOTEuNCAgICA4Myw5MS40IDgzLDgyLjQgICIvPiYjeGE7CTxwb2x5Z29uIGZpbGw9IiMzMTJEMkEiIHBvaW50cz0iOTMuNiw3MC4zIDk2LjcsNjcuMiA5Miw2Mi41IDk3LDU3LjYgOTMuOSw1NC41IDg5LDU5LjUgODQuMyw1NC44IDgxLjIsNTcuOCA4NS45LDYyLjUgODAuOSw2Ny41ICAgIDg0LDcwLjYgODksNjUuNiAgIi8+JiN4YTsJPHBvbHlnb24gZmlsbD0iIzMxMkQyQSIgcG9pbnRzPSI4NC4yLDM1LjMgODAuOSwzOC4xIDg3LjcsNDYuMiAxMDAuMiwzMi40IDk3LDI5LjUgODcuOCwzOS42ICAiLz4mI3hhOwk8cGF0aCBmaWxsPSIjMzEyRDJBIiBkPSJNMTUzLDExMS41di0zMGwtMzIuOC0xNC4xTDg3LjQsODEuNWwwLjEsMzEuOGwwLjEsMC40YzQuOCwyNy43LDI5LjksMzcuOSwzMC45LDM4LjRsMS45LDAuOGwxLjgtMC45ICAgQzE1MywxMzYuMiwxNTMsMTEyLjUsMTUzLDExMS41eiBNMTQ0LDExMS42YzAsMC43LTAuMywxNi0xOS40LDI4LjZ2LTM3LjJoLTl2MzcuM2MtNi42LTQuMy0xNi4zLTEzLTE5LTI3LjdsLTAuMS0yNS4xbDE5LjEtOC4yVjk1ICAgaDlWNzkuMWwxOS40LDguM1YxMTEuNnoiLz4mI3hhOzwvZz4mI3hhOzwvc3ZnPg==;dashed=1;fillColor=none;" vertex="1" parent="1">
          <mxGeometry x="200" y="340" width="50" height="50" as="geometry" />
        </mxCell>
        <mxCell id="7DfuF_MUj5GNYcEewrte-36" value="NoSQL Table" style="shape=image;verticalLabelPosition=bottom;verticalAlign=top;imageAspect=0;aspect=fixed;image=data:image/svg+xml,PHN2ZyB2ZXJzaW9uPSIxLjEiIGlkPSJSb3V0ZV9UYWJsZSIgeG1sbnM9Imh0dHA6Ly93d3cudzMub3JnLzIwMDAvc3ZnIiB4bWxuczp4bGluaz0iaHR0cDovL3d3dy53My5vcmcvMTk5OS94bGluayIgeD0iMHB4IiB5PSIwcHgiIHZpZXdCb3g9IjAgMCAxNjEuOSAxNjIiIGVuYWJsZS1iYWNrZ3JvdW5kPSJuZXcgMCAwIDE2MS45IDE2MiIgeG1sOnNwYWNlPSJwcmVzZXJ2ZSI+JiN4YTs8Zz4mI3hhOwk8cGF0aCBmaWxsPSIjMzEyRDJBIiBkPSJNNTguNCwzMi4xaC05LjhIMjAuNHYyOS41djkuMnYyMC40djkuMnYyOS41aDI4LjNoOS44aDgzLjh2LTI5LjV2LTkuMlY3MC44di05LjJWMzIuMUg1OC40eiBNNDguNiwxMjAuOSAgIEgyOS40di0yMC41aDE5LjNWMTIwLjl6IE00OC42LDkxLjJIMjkuNFY3MC44aDE5LjNWOTEuMnogTTQ4LjYsNjEuN0gyOS40VjQxLjFoMTkuM1Y2MS43eiBNMTMzLjMsMTIwLjlINTguNHYtMjAuNWg3NC44VjEyMC45eiAgICBNMTMzLjMsOTEuMkg1OC40VjcwLjhoNzQuOFY5MS4yeiBNMTMzLjMsNjEuN0g1OC40VjQxLjFoNzQuOFY2MS43eiIvPiYjeGE7CTxwb2x5Z29uIGZpbGw9IiMzMTJEMkEiIHBvaW50cz0iNjguNCw1OC4zIDcwLjksNTMuOCA3My41LDU4LjMgNzcuOSw1OC4zIDczLjYsNTEuMyA3Ny43LDQ0LjggNzMuMyw0NC44IDcwLjksNDguOSA2OC41LDQ0LjggICAgNjQuMSw0NC44IDY4LjIsNTEuMyA2My45LDU4LjMgICIvPiYjeGE7CTxyZWN0IHg9IjgwIiB5PSI1NS4xIiBmaWxsPSIjMzEyRDJBIiB3aWR0aD0iMy45IiBoZWlnaHQ9IjMuMiIvPiYjeGE7CTxwb2x5Z29uIGZpbGw9IiMzMTJEMkEiIHBvaW50cz0iOTEuNCw1OC4zIDkzLjksNTMuOCA5Ni41LDU4LjMgMTAwLjgsNTguMyA5Ni41LDUxLjMgMTAwLjYsNDQuOCA5Ni4zLDQ0LjggOTMuOSw0OC45IDkxLjQsNDQuOCAgICA4Ny4xLDQ0LjggOTEuMSw1MS4zIDg2LjksNTguMyAgIi8+JiN4YTsJPHJlY3QgeD0iMTAyLjIiIHk9IjU1LjEiIGZpbGw9IiMzMTJEMkEiIHdpZHRoPSIzLjkiIGhlaWdodD0iMy4yIi8+JiN4YTsJPHBvbHlnb24gZmlsbD0iIzMxMkQyQSIgcG9pbnRzPSIxMTIuOCw1OC4zIDExNS4zLDUzLjggMTE3LjksNTguMyAxMjIuMiw1OC4zIDExNy45LDUxLjMgMTIyLDQ0LjggMTE3LjcsNDQuOCAxMTUuMyw0OC45ICAgIDExMi44LDQ0LjggMTA4LjUsNDQuOCAxMTIuNSw1MS4zIDEwOC4zLDU4LjMgICIvPiYjeGE7CTxyZWN0IHg9IjEyMy42IiB5PSI1NS4xIiBmaWxsPSIjMzEyRDJBIiB3aWR0aD0iMy45IiBoZWlnaHQ9IjMuMiIvPiYjeGE7CTxwb2x5Z29uIGZpbGw9IiMzMTJEMkEiIHBvaW50cz0iNjguNCw4Ny44IDcwLjksODMuNCA3My41LDg3LjggNzcuOSw4Ny44IDczLjYsODAuOSA3Ny43LDc0LjQgNzMuMyw3NC40IDcwLjksNzguNSA2OC41LDc0LjQgICAgNjQuMSw3NC40IDY4LjIsODAuOCA2My45LDg3LjggICIvPiYjeGE7CTxyZWN0IHg9IjgwIiB5PSI4NC42IiBmaWxsPSIjMzEyRDJBIiB3aWR0aD0iMy45IiBoZWlnaHQ9IjMuMiIvPiYjeGE7CTxwb2x5Z29uIGZpbGw9IiMzMTJEMkEiIHBvaW50cz0iOTEuNCw4Ny44IDkzLjksODMuNCA5Ni41LDg3LjggMTAwLjgsODcuOCA5Ni41LDgwLjkgMTAwLjYsNzQuNCA5Ni4zLDc0LjQgOTMuOSw3OC41IDkxLjQsNzQuNCAgICA4Ny4xLDc0LjQgOTEuMSw4MC44IDg2LjksODcuOCAgIi8+JiN4YTsJPHJlY3QgeD0iMTAyLjIiIHk9Ijg0LjYiIGZpbGw9IiMzMTJEMkEiIHdpZHRoPSIzLjkiIGhlaWdodD0iMy4yIi8+JiN4YTsJPHBvbHlnb24gZmlsbD0iIzMxMkQyQSIgcG9pbnRzPSIxMTIuOCw4Ny44IDExNS4zLDgzLjQgMTE3LjksODcuOCAxMjIuMiw4Ny44IDExNy45LDgwLjkgMTIyLDc0LjQgMTE3LjcsNzQuNCAxMTUuMyw3OC41ICAgIDExMi44LDc0LjQgMTA4LjUsNzQuNCAxMTIuNSw4MC44IDEwOC4zLDg3LjggICIvPiYjeGE7CTxyZWN0IHg9IjEyMy42IiB5PSI4NC42IiBmaWxsPSIjMzEyRDJBIiB3aWR0aD0iMy45IiBoZWlnaHQ9IjMuMiIvPiYjeGE7CTxwb2x5Z29uIGZpbGw9IiMzMTJEMkEiIHBvaW50cz0iNjguNCwxMTcuNCA3MC45LDExMi45IDczLjUsMTE3LjQgNzcuOSwxMTcuNCA3My42LDExMC40IDc3LjcsMTAzLjkgNzMuMywxMDMuOSA3MC45LDEwOCAgICA2OC41LDEwMy45IDY0LjEsMTAzLjkgNjguMiwxMTAuMyA2My45LDExNy40ICAiLz4mI3hhOwk8cmVjdCB4PSI4MCIgeT0iMTE0LjIiIGZpbGw9IiMzMTJEMkEiIHdpZHRoPSIzLjkiIGhlaWdodD0iMy4yIi8+JiN4YTsJPHBvbHlnb24gZmlsbD0iIzMxMkQyQSIgcG9pbnRzPSI5MS40LDExNy40IDkzLjksMTEyLjkgOTYuNSwxMTcuNCAxMDAuOCwxMTcuNCA5Ni41LDExMC40IDEwMC42LDEwMy45IDk2LjMsMTAzLjkgOTMuOSwxMDggICAgOTEuNCwxMDMuOSA4Ny4xLDEwMy45IDkxLjEsMTEwLjMgODYuOSwxMTcuNCAgIi8+JiN4YTsJPHJlY3QgeD0iMTAyLjIiIHk9IjExNC4yIiBmaWxsPSIjMzEyRDJBIiB3aWR0aD0iMy45IiBoZWlnaHQ9IjMuMiIvPiYjeGE7CTxwb2x5Z29uIGZpbGw9IiMzMTJEMkEiIHBvaW50cz0iMTEyLjgsMTE3LjQgMTE1LjMsMTEyLjkgMTE3LjksMTE3LjQgMTIyLjIsMTE3LjQgMTE3LjksMTEwLjQgMTIyLDEwMy45IDExNy43LDEwMy45IDExNS4zLDEwOCAgICAxMTIuOCwxMDMuOSAxMDguNSwxMDMuOSAxMTIuNSwxMTAuMyAxMDguMywxMTcuNCAgIi8+JiN4YTsJPHJlY3QgeD0iMTIzLjYiIHk9IjExNC4yIiBmaWxsPSIjMzEyRDJBIiB3aWR0aD0iMy45IiBoZWlnaHQ9IjMuMiIvPiYjeGE7PC9nPiYjeGE7PC9zdmc+;dashed=1;fillColor=none;" vertex="1" parent="1">
          <mxGeometry x="199" y="438" width="52" height="52" as="geometry" />
        </mxCell>
      </root>
    </mxGraphModel>
  </diagram>
</mxfile>
